<svg viewBox="0 0 300 92" version="1.1" xmlns="http://www.w3.org/2000/svg" xmlns:xlink="http://www.w3.org/1999/xlink">
    <defs>
        <linearGradient x1="-5.79430943%" y1="62.7442697%" x2="101.985774%" y2="28.1112717%" id="linearGradient-1">
            <stop stop-color="#F9ED32" offset="0%"></stop>
            <stop stop-color="#0090B8" offset="100%"></stop>
        </linearGradient>
        <linearGradient x1="50.9870553%" y1="105.056489%" x2="49.6769258%" y2="0.840451915%" id="linearGradient-2">
            <stop stop-color="#F9ED32" offset="0%"></stop>
            <stop stop-color="#F3E93C" offset="2%"></stop>
            <stop stop-color="#0090B8" offset="100%"></stop>
        </linearGradient>
        <linearGradient x1="97.5709123%" y1="82.0313909%" x2="-8.68480515%" y2="34.3517696%" id="linearGradient-3">
            <stop stop-color="#F9ED32" offset="0%"></stop>
            <stop stop-color="#0090B8" offset="100%"></stop>
        </linearGradient>
        <linearGradient x1="103.601067%" y1="33.635634%" x2="13.5002964%" y2="68.2723014%" id="linearGradient-4">
            <stop stop-color="#F9ED32" offset="0%"></stop>
            <stop stop-color="#0090B8" offset="100%"></stop>
        </linearGradient>
        <linearGradient x1="48.8700735%" y1="-1.65357586%" x2="50.3715647%" y2="98.5806807%" id="linearGradient-5">
            <stop stop-color="#F9ED32" offset="0%"></stop>
            <stop stop-color="#0090B8" offset="100%"></stop>
        </linearGradient>
        <linearGradient x1="-0.573511905%" y1="16.8372679%" x2="112.307125%" y2="67.2677307%" id="linearGradient-6">
            <stop stop-color="#F9ED32" offset="0%"></stop>
            <stop stop-color="#0090B8" offset="100%"></stop>
        </linearGradient>
    </defs>
    <g id="Page-1" stroke="none" stroke-width="1" fill="none" fill-rule="evenodd">
        <g id="Desktop-HD-Copy" transform="translate(-570.000000, -30.000000)" fill-rule="nonzero">
            <g id="HLF-logo" transform="translate(570.000000, 30.000000)">
                <path d="M6.40298507,81.1716418 L7.19402985,81.1716418 C7.34948756,81.1547133 7.50583215,81.194462 7.63432836,81.2835821 C7.72466104,81.4029827 7.76482427,81.5529254 7.74626866,81.7014925 L7.74626866,84.8955224 L3.95522388,84.8955224 L3.95522388,81.5223881 C3.950309,81.4264351 3.98864709,81.3333283 4.05970149,81.2686567 C4.16289556,81.1929191 4.29059955,81.1583326 4.41791045,81.1716418 L5.31343284,81.1716418 L5.31343284,80.1716418 L0,80.1716418 L0,81.1716418 L0.791044776,81.1716418 C0.941648594,81.1570272 1.09251608,81.1967292 1.21641791,81.2835821 C1.30731353,81.4029351 1.34994199,81.5521347 1.3358209,81.7014925 L1.3358209,89.8283582 C1.35010393,89.9523071 1.3182231,90.0771737 1.24626866,90.1791045 C1.16869591,90.2477806 1.06563191,90.2803271 0.962686567,90.2686567 L0,90.2686567 L0,91.2686567 L5.31343284,91.2686567 L5.31343284,90.2985075 L4.28358209,90.2985075 C4.19488481,90.3038571 4.10808527,90.2713073 4.04477612,90.2089552 C3.97840557,90.1045293 3.94703743,89.9816707 3.95522388,89.858209 L3.95522388,86.1268657 L7.74626866,86.1268657 L7.74626866,89.858209 C7.76055169,89.9821578 7.72867086,90.1070244 7.65671642,90.2089552 C7.56228867,90.2787663 7.44515388,90.3107121 7.32835821,90.2985075 L6.40298507,90.2985075 L6.40298507,91.2985075 L11.7238806,91.2985075 L11.7238806,90.2985075 L10.8134328,90.2985075 C10.688567,90.3092254 10.5646945,90.2688322 10.4701493,90.1865672 C10.3776127,90.0709368 10.3346767,89.9233443 10.3507463,89.7761194 L10.3507463,81.6044776 C10.338626,81.4852823 10.3764538,81.3663951 10.4552239,81.2761194 C10.5074627,81.2238806 10.6268657,81.1716418 10.8955224,81.1716418 L11.7238806,81.1716418 L11.7238806,80.1716418 L6.40298507,80.1716418 L6.40298507,81.1716418 Z" id="Path" fill="#808285"></path>
                <path d="M24.7164179,90.1567164 C24.5691135,90.0256612 24.4585128,89.858474 24.3955224,89.6716418 L20.3507463,79.9701493 L20.3134328,79.8731343 L19.2761194,79.8731343 L15.3731343,89.2238806 C15.2373009,89.5464959 15.0277109,89.8327651 14.761194,90.0597015 C14.5942313,90.1996548 14.3819761,90.2739442 14.1641791,90.2686567 L13.7761194,90.2686567 L13.7761194,91.2686567 L18.1865672,91.2686567 L18.1865672,90.2985075 L17.6865672,90.2985075 C17.3817572,90.3184774 17.0798955,90.2284485 16.8358209,90.0447761 C16.6386679,89.8881933 16.5278261,89.6471123 16.5373134,89.3955224 C16.5723967,89.1356332 16.650584,88.8834162 16.7686567,88.6492537 L17.1119403,87.8432836 L20.9328358,87.8432836 L21.7238806,89.738806 C21.7656463,89.8359203 21.7908701,89.9393378 21.7985075,90.0447761 C21.7980348,90.1309673 21.7446877,90.2080242 21.6641791,90.238806 C21.4432556,90.3236256 21.2058632,90.3568095 20.9701493,90.3358209 L20.3358209,90.3358209 L20.3358209,91.3358209 L25.7164179,91.3358209 L25.7164179,90.2985075 L25.1641791,90.2985075 C25.0040859,90.2971999 24.8480824,90.2477988 24.7164179,90.1567164 L24.7164179,90.1567164 Z M20.5,86.738806 L17.5149254,86.738806 L19.0074627,83.2089552 L20.5,86.738806 Z" id="Shape" fill="#808285"></path>
                <path d="M41.9104478,80.1716418 L38.0597015,80.1716418 L38.0597015,81.1716418 L38.5298507,81.1716418 C38.7190823,81.1600369 38.9040963,81.2307775 39.0373134,81.3656716 C39.1757158,81.5205282 39.2433238,81.7260564 39.2238806,81.9328358 C39.2233435,82.0851398 39.1981416,82.2363515 39.1492537,82.380597 L37.5074627,87.5149254 L35.5373134,81.619403 C35.5274627,81.5701394 35.5274627,81.5194129 35.5373134,81.4701493 C35.5283263,81.3860678 35.5691336,81.3044532 35.641791,81.261194 C35.8295572,81.1797065 36.035395,81.1488308 36.238806,81.1716418 L36.858209,81.1716418 L36.858209,80.1716418 L31.5223881,80.1716418 L31.5223881,81.1716418 L32.2089552,81.1716418 C32.4004192,81.1611054 32.591185,81.202352 32.761194,81.2910448 C32.862453,81.3705985 32.9356608,81.4804102 32.9701493,81.6044776 L33.2761194,82.5 L31.5895522,87.5298507 L29.5970149,81.6268657 C29.5695162,81.5449957 29.5544237,81.4594715 29.5522388,81.3731343 C29.5459746,81.3186825 29.5686136,81.2649147 29.6119403,81.2313433 C29.7497361,81.1785313 29.8978287,81.1581047 30.0447761,81.1716418 L30.5970149,81.1716418 L30.5970149,80.1716418 L25.9552239,80.1716418 L25.9552239,81.1716418 L26.4626866,81.1716418 C26.5811871,81.1661125 26.6984946,81.1973945 26.7985075,81.261194 C26.9031133,81.3503015 26.9763572,81.4706308 27.0074627,81.6044776 L30.3432836,91.4701493 L31.4626866,91.4701493 L33.8880597,84.2537313 L36.3134328,91.4701493 L37.4402985,91.4701493 L40.4701493,82.0895522 C40.5398434,81.8176849 40.6972189,81.5763758 40.9179104,81.4029851 C41.1652739,81.2392022 41.457179,81.1558007 41.7537313,81.1641791 L41.9104478,81.1641791 L41.9104478,80.1716418 Z" id="Path" fill="#808285"></path>
                <path d="M52.7761194,90.1567164 C52.6255519,90.0270359 52.5122189,89.859612 52.4477612,89.6716418 L48.4104478,79.9701493 L48.3656716,79.8731343 L47.3358209,79.8731343 L43.4253731,89.1940299 C43.2918011,89.5179202 43.0818482,89.804685 42.8134328,90.0298507 C42.648759,90.1686943 42.4392356,90.2429557 42.2238806,90.238806 L41.8283582,90.238806 L41.8283582,91.238806 L46.2686567,91.238806 L46.2686567,90.2985075 L45.761194,90.2985075 C45.4564593,90.3178127 45.1548235,90.2278511 44.9104478,90.0447761 C44.7179875,89.8852109 44.6104711,89.6453668 44.619403,89.3955224 C44.650767,89.1348258 44.7291498,88.8819783 44.8507463,88.6492537 L45.1865672,87.8432836 L49.0074627,87.8432836 L49.7985075,89.738806 C49.843834,89.8346944 49.8692224,89.9387866 49.8731343,90.0447761 C49.8719727,90.1285585 49.8225527,90.2041421 49.7462687,90.238806 C49.5251497,90.3228662 49.2879325,90.3560256 49.0522388,90.3358209 L48.4179104,90.3358209 L48.4179104,91.3358209 L53.7985075,91.3358209 L53.7985075,90.2985075 L53.238806,90.2985075 C53.0731089,90.3039496 52.9103171,90.2540618 52.7761194,90.1567164 Z M48.5522388,86.738806 L45.5671642,86.738806 L47.0597015,83.2089552 L48.5522388,86.738806 Z" id="Shape" fill="#808285"></path>
                <path d="M55.9701493,81.1716418 L57.0970149,81.1716418 C57.2393741,81.1589308 57.3817487,81.1958427 57.5,81.2761194 C57.5831261,81.3641836 57.6239643,81.4839759 57.6119403,81.6044776 L57.6119403,89.858209 C57.6227582,89.9733416 57.5784792,90.0868064 57.4925373,90.1641791 C57.3355263,90.2505926 57.1558863,90.2870413 56.9776119,90.2686567 L55.9701493,90.2686567 L55.9701493,91.2686567 L61.8208955,91.2686567 L61.8208955,90.2985075 L60.7835821,90.2985075 C60.6179419,90.3121708 60.4524806,90.2701489 60.3134328,90.1791045 C60.2435528,90.0992382 60.2109857,89.9933952 60.2238806,89.8880597 L60.2238806,81.5149254 C60.2151186,81.4213131 60.2478523,81.3285677 60.3134328,81.261194 C60.418771,81.1905558 60.5454548,81.1588848 60.6716418,81.1716418 L61.8358209,81.1716418 L61.8358209,80.1716418 L55.9701493,80.1716418 L55.9701493,81.1716418 Z" id="Path" fill="#808285"></path>
                <path d="M65.5746269,82.3656716 L65.3208955,82.3656716 L65.1343284,82.3656716 L65.0895522,82.3656716 C65.0865367,82.3508986 65.0865367,82.3356686 65.0895522,82.3208955 C65.1300851,82.0178612 65.2659954,81.735586 65.4776119,81.5149254 C65.8077148,81.1282939 66.2175979,80.8176993 66.6791045,80.6044776 L66.8283582,80.5298507 L66.4179104,79.8507463 L66.2835821,79.9179104 C65.554225,80.2257486 64.9167268,80.716725 64.4328358,81.3432836 C64.0188821,81.8564237 63.7831343,82.4903235 63.761194,83.1492537 C63.7418276,83.6762967 63.9231918,84.1910509 64.2686567,84.5895522 C64.5799078,84.9594592 65.0389551,85.1725883 65.5223881,85.1716418 C65.9061545,85.1788687 66.2759548,85.0277094 66.5447761,84.7537313 C66.8123392,84.4912878 66.9630925,84.1322515 66.9630925,83.7574627 C66.9630925,83.3826739 66.8123392,83.0236376 66.5447761,82.761194 C66.2877747,82.5042025 65.9380522,82.3616233 65.5746269,82.3656716 L65.5746269,82.3656716 Z" id="Path" fill="#808285"></path>
                <path d="M68.8955224,81.1716418 L70.0223881,81.1716418 C70.1647473,81.1589308 70.3071219,81.1958427 70.4253731,81.2761194 C70.5084992,81.3641836 70.5493375,81.4839759 70.5373134,81.6044776 L70.5373134,89.858209 C70.5481313,89.9733416 70.5038524,90.0868064 70.4179104,90.1641791 C70.2608994,90.2505926 70.0812594,90.2870413 69.9029851,90.2686567 L68.8955224,90.2686567 L68.8955224,91.2686567 L74.7462687,91.2686567 L74.7462687,90.2985075 L73.6940299,90.2985075 C73.5283896,90.3121708 73.3629284,90.2701489 73.2238806,90.1791045 C73.1540005,90.0992382 73.1214334,89.9933952 73.1343284,89.8880597 L73.1343284,81.5149254 C73.1255664,81.4213131 73.1583001,81.3285677 73.2238806,81.261194 C73.3292188,81.1905558 73.4559025,81.1588848 73.5820896,81.1716418 L74.7462687,81.1716418 L74.7462687,80.1716418 L68.8955224,80.1716418 L68.8955224,81.1716418 Z" id="Path" fill="#808285"></path>
                <path d="M94.0298507,86.9402985 C93.8784924,87.8729176 93.4962435,88.7528597 92.9179104,89.5 C92.5516232,89.952761 92.0073543,90.2248954 91.4253731,90.2462687 L89.8731343,90.2462687 C89.4029851,90.2462687 89.2835821,90.1791045 89.261194,90.1567164 C89.238806,90.1343284 89.1641791,90.0373134 89.1641791,89.6492537 L89.1641791,81.6567164 C89.1507983,81.5201416 89.1909275,81.3837022 89.2761194,81.2761194 C89.3208955,81.2313433 89.4402985,81.1716418 89.7238806,81.1716418 L90.8134328,81.1716418 L90.8134328,80.1716418 L84.9626866,80.1716418 L84.9626866,81.1716418 L85.9776119,81.1716418 C86.1382789,81.1529841 86.3006586,81.1870314 86.4402985,81.2686567 C86.517123,81.3511054 86.5551295,81.4624101 86.5447761,81.5746269 L86.5447761,89.7835821 C86.5542959,89.9060401 86.5139264,90.0271485 86.4328358,90.119403 C86.3324968,90.2018118 86.2040352,90.2419561 86.0746269,90.2313433 L84.9626866,90.2313433 L84.9626866,91.2313433 L94.7761194,91.2313433 L95.0447761,86.7537313 L94.0298507,86.7537313 L94.0298507,86.9402985 Z" id="Path" fill="#808285"></path>
                <path d="M107.313433,86.9850746 C107.261966,87.8998854 106.907522,88.7715553 106.30597,89.4626866 C105.760685,90.0050517 105.014837,90.2969051 104.246269,90.2686567 L102.985075,90.2686567 C102.785302,90.2827246 102.585728,90.2386628 102.410448,90.141791 C102.410448,90.141791 102.320896,90.0820896 102.320896,89.9029851 L102.320896,86.0746269 L102.574627,86.0746269 C103.064858,86.0364604 103.548851,86.2041002 103.910448,86.5373134 C104.259981,87.0141269 104.436364,87.5959296 104.410448,88.1865672 L104.410448,88.3432836 L105.380597,88.3432836 L105.380597,83.0074627 L104.41791,83.0074627 L104.41791,83.1567164 C104.41754,83.6977351 104.23629,84.2230975 103.902985,84.6492537 C103.572458,84.9629153 103.126441,85.1251031 102.671642,85.0970149 L102.328358,85.0970149 L102.328358,81.5223881 C102.319239,81.4250932 102.354951,81.3289452 102.425373,81.261194 C102.542151,81.1914275 102.677892,81.1601025 102.813433,81.1716418 L104.30597,81.1716418 C104.773681,81.1512247 105.239462,81.2433571 105.664179,81.4402985 C106.01439,81.6273673 106.302307,81.9126907 106.492537,82.261194 C106.776614,82.8484631 106.960733,83.4790077 107.037313,84.1268657 L107.037313,84.261194 L107.985075,84.261194 L107.753731,80.1716418 L98.0522388,80.1716418 L98.0522388,81.1716418 L99.0671642,81.1716418 C99.2437383,81.1545831 99.4216423,81.1855229 99.5820896,81.261194 C99.6583291,81.3253624 99.697521,81.4233423 99.6865672,81.5223881 L99.6865672,89.8134328 C99.6940636,89.9369491 99.650954,90.0581948 99.5671642,90.1492537 C99.4584056,90.2382759 99.3190957,90.2811405 99.1791045,90.2686567 L98.0522388,90.2686567 L98.0522388,91.2686567 L108.149254,91.2686567 L108.328358,86.8432836 L107.358209,86.8432836 L107.313433,86.9850746 Z" id="Path" fill="#808285"></path>
                <path d="M122.261194,90.1567164 C122.11389,90.0256612 122.003289,89.858474 121.940299,89.6716418 L117.895522,79.9701493 L117.895522,79.8731343 L116.858209,79.8731343 L112.955224,89.1940299 C112.821652,89.5179202 112.611699,89.804685 112.343284,90.0298507 C112.176321,90.1698041 111.964066,90.2440934 111.746269,90.238806 L111.358209,90.238806 L111.358209,91.238806 L115.768657,91.238806 L115.768657,90.2985075 L115.268657,90.2985075 C114.963847,90.3184774 114.661985,90.2284485 114.41791,90.0447761 C114.220757,89.8881933 114.109916,89.6471123 114.119403,89.3955224 C114.154486,89.1356332 114.232674,88.8834162 114.350746,88.6492537 L114.69403,87.8432836 L118.514925,87.8432836 L119.30597,89.738806 C119.347736,89.8359203 119.37296,89.9393378 119.380597,90.0447761 C119.380124,90.1309673 119.326777,90.2080242 119.246269,90.238806 C119.025345,90.3236256 118.787953,90.3568095 118.552239,90.3358209 L117.910448,90.3358209 L117.910448,91.3358209 L123.291045,91.3358209 L123.291045,90.2985075 L122.738806,90.2985075 C122.568554,90.3033907 122.401202,90.2537078 122.261194,90.1567164 L122.261194,90.1567164 Z M118.044776,86.738806 L115.059701,86.738806 L116.552239,83.2089552 L118.044776,86.738806 Z" id="Shape" fill="#808285"></path>
                <path d="M134.604478,80.858209 C133.728743,80.3888984 132.747108,80.1524835 131.753731,80.1716418 L125.783582,80.1716418 L125.783582,81.1716418 L126.738806,81.1716418 C126.908544,81.1523348 127.079768,81.191848 127.223881,81.2835821 C127.3108,81.3787619 127.354076,81.5058851 127.343284,81.6343284 L127.343284,89.7537313 C127.3537,89.8947382 127.308117,90.0341682 127.216418,90.141791 C127.114324,90.2378949 126.975158,90.2842835 126.835821,90.2686567 L125.783582,90.2686567 L125.783582,91.2686567 L131.955224,91.2686567 C132.913486,91.267244 133.853935,91.0095868 134.679104,90.5223881 C135.493995,90.0664007 136.159952,89.3848967 136.597015,88.5597015 C137.034293,87.6635287 137.251741,86.6760609 137.231343,85.6791045 C137.248696,84.6909789 137.020478,83.7140005 136.567164,82.8358209 C136.11353,82.0039672 135.432871,81.3181318 134.604478,80.858209 L134.604478,80.858209 Z M129.992537,81.6044776 C129.992537,81.3656716 130.08209,81.3059701 130.104478,81.2910448 C130.372298,81.1964964 130.657942,81.1633413 130.940299,81.1940299 C131.614741,81.15195 132.28795,81.2938141 132.88806,81.6044776 C133.372016,81.9407785 133.733477,82.4253458 133.91791,82.9850746 C134.21992,83.8989756 134.358852,84.8588691 134.328358,85.8208955 C134.369947,86.7137585 134.258901,87.6071727 134,88.4626866 C133.795328,88.9958662 133.426946,89.4504648 132.947761,89.761194 C132.446037,90.0855938 131.858512,90.2519727 131.261194,90.238806 L130.477612,90.238806 C130.346924,90.2511619 130.216374,90.213862 130.11194,90.1343284 C130.031118,90.010734 129.994311,89.863506 130.007463,89.7164179 L129.992537,81.6044776 Z" id="Shape" fill="#808285"></path>
                <path d="M150.156716,86.9850746 C150.10525,87.8998854 149.750806,88.7715553 149.149254,89.4626866 C148.609578,90.0167686 147.862729,90.3198377 147.089552,90.2985075 L145.791045,90.2985075 C145.591367,90.3113163 145.392142,90.2673317 145.216418,90.1716418 C145.216418,90.1716418 145.126866,90.1119403 145.126866,89.9328358 L145.126866,86.1044776 L145.380597,86.1044776 C145.870829,86.0663112 146.354821,86.2339509 146.716418,86.5671642 C147.065951,87.0439776 147.242335,87.6257803 147.216418,88.2164179 L147.216418,88.3731343 L148.186567,88.3731343 L148.186567,83.0373134 L147.223881,83.0373134 L147.223881,83.1865672 C147.227021,83.7281698 147.045384,84.254653 146.708955,84.6791045 C146.379409,84.9943476 145.932676,85.1567959 145.477612,85.1268657 L145.134328,85.1268657 L145.134328,81.5522388 C145.125209,81.454944 145.160922,81.358796 145.231343,81.2910448 C145.350435,81.2202152 145.488879,81.1888694 145.626866,81.2014925 L147.119403,81.2014925 C147.589437,81.1821828 148.05738,81.2742372 148.485075,81.4701493 C148.831502,81.6597501 149.116369,81.9446172 149.30597,82.2910448 C149.590047,82.8783139 149.774166,83.5088584 149.850746,84.1567164 L149.850746,84.2910448 L150.798507,84.2910448 L150.567164,80.2014925 L140.865672,80.2014925 L140.865672,81.2014925 L141.880597,81.2014925 C142.059529,81.1859455 142.239448,81.2167887 142.402985,81.2910448 C142.473407,81.358796 142.509119,81.454944 142.5,81.5522388 L142.5,89.8432836 C142.507496,89.9667999 142.464387,90.0880455 142.380597,90.1791045 C142.271838,90.2681266 142.132528,90.3109912 141.992537,90.2985075 L140.865672,90.2985075 L140.865672,91.2985075 L150.962687,91.2985075 L151.141791,86.8731343 L150.171642,86.8731343 L150.156716,86.9850746 Z" id="Path" fill="#808285"></path>
                <path d="M165.320896,88.6641791 C165.268657,89.4104478 165.11194,89.7910448 164.902985,89.7910448 C164.902985,89.7910448 164.80597,89.7910448 164.716418,89.6716418 C164.577361,89.4095009 164.479212,89.1276358 164.425373,88.8358209 C164.260518,88.1645865 164.009689,87.5174459 163.679104,86.9104478 C163.469838,86.530607 163.176241,86.2038217 162.820896,85.9552239 C162.652534,85.8476035 162.472216,85.7599488 162.283582,85.6940299 C162.90101,85.6013988 163.492837,85.3829562 164.022388,85.0522388 C164.729099,84.6095416 165.157807,83.8339186 165.156716,83 C165.158167,82.4819757 164.99914,81.9762167 164.701493,81.5522388 C164.356372,81.0897617 163.884602,80.7372303 163.343284,80.5373134 C162.610281,80.2690028 161.832344,80.144837 161.052239,80.1716418 L155.223881,80.1716418 L155.223881,81.1716418 L156.30597,81.1716418 C156.422274,81.1648252 156.536869,81.2021351 156.626866,81.2761194 C156.706133,81.3863858 156.743205,81.521434 156.731343,81.6567164 L156.731343,89.7835821 C156.742754,89.9166185 156.699662,90.048587 156.61194,90.1492537 C156.506269,90.2385723 156.369099,90.2816062 156.231343,90.2686567 L155.223881,90.2686567 L155.223881,91.2686567 L161.007463,91.2686567 L161.007463,90.2985075 L159.865672,90.2985075 C159.72042,90.3044017 159.578574,90.2535511 159.470149,90.1567164 C159.393578,90.0864044 159.354825,89.9839861 159.365672,89.880597 L159.365672,86.0671642 L160,86.0671642 C160.263178,86.0593146 160.522806,86.1294143 160.746269,86.2686567 C160.968913,86.4260704 161.1423,86.6434508 161.246269,86.8955224 C161.464584,87.4726247 161.624586,88.0701305 161.723881,88.6791045 C161.805996,89.186239 161.930818,89.6855277 162.097015,90.1716418 C162.228588,90.5376165 162.47124,90.8533257 162.791045,91.0746269 C163.150718,91.2980007 163.569582,91.4072696 163.992537,91.3880597 C164.600522,91.4231147 165.19303,91.1882961 165.61194,90.7462687 C166.052224,90.1599719 166.281062,89.4418935 166.261194,88.7089552 L166.261194,88.5373134 L165.298507,88.5373134 L165.320896,88.6641791 Z M159.350746,81.8358209 C159.350746,81.4328358 159.432836,81.3208955 159.470149,81.2910448 C159.507463,81.261194 159.641791,81.1791045 160.216418,81.1791045 C160.812261,81.1172878 161.410548,81.2708304 161.902985,81.6119403 C162.244881,81.9923499 162.412578,82.4981453 162.365672,83.0074627 C162.429243,83.5492823 162.258151,84.0924335 161.895522,84.5 C161.387786,84.9135604 160.743227,85.121311 160.089552,85.0820896 L159.343284,85.0820896 L159.350746,81.8358209 Z" id="Shape" fill="#808285"></path>
                <path d="M176.462687,84.9179104 C175.750084,84.6537094 175.01602,84.4514673 174.268657,84.3134328 C173.637227,84.2061137 173.019222,84.0309705 172.425373,83.7910448 C172.128422,83.6755886 171.869853,83.4790764 171.679104,83.2238806 C171.532389,83.0034338 171.459242,82.742193 171.470149,82.4776119 C171.467724,82.0320874 171.67162,81.6105201 172.022388,81.3358209 C172.442388,80.9943699 172.974434,80.8214547 173.514925,80.8507463 C174.240515,80.8517904 174.940883,81.1170814 175.485075,81.5970149 C176.16165,82.2233471 176.647916,83.0277546 176.88806,83.9179104 L176.88806,84.0298507 L177.828358,84.0298507 L177.753731,79.9850746 L177.007463,79.9850746 L176.380597,80.8731343 C175.562537,80.2131995 174.5436,79.8524905 173.492537,79.8507463 C172.481145,79.8037438 171.491067,80.1516092 170.731343,80.8208955 C170.042314,81.4726188 169.664816,82.387849 169.69403,83.3358209 C169.62879,84.4534368 170.244839,85.4998354 171.253731,85.9850746 C172.085623,86.3957554 172.969262,86.6919753 173.880597,86.8656716 C174.432748,86.9712399 174.978414,87.1082793 175.514925,87.2761194 C175.838197,87.3887013 176.124608,87.5873832 176.343284,87.8507463 C176.523555,88.1053644 176.615311,88.4120944 176.604478,88.7238806 C176.60978,89.2111572 176.385947,89.6726406 176,89.9701493 C175.494143,90.3426368 174.873204,90.5249548 174.246269,90.4850746 C172.365672,90.4850746 171.149254,89.4029851 170.514925,87.1791045 L170.514925,87.0671642 L169.589552,87.0671642 L169.589552,91.380597 L170.335821,91.380597 L171.134328,90.380597 C171.99089,91.095929 173.070598,91.4892699 174.186567,91.4925373 C175.344895,91.5267587 176.474827,91.1306176 177.358209,90.380597 C178.07871,89.7508191 178.476346,88.8293989 178.440299,87.8731343 C178.459493,87.24152 178.285021,86.619148 177.940299,86.0895522 C177.565071,85.5703694 177.053733,85.1649143 176.462687,84.9179104 L176.462687,84.9179104 Z" id="Path" fill="#808285"></path>
                <path d="M188.80597,81.1716418 L189.552239,81.1716418 C189.707744,81.1540239 189.864328,81.1938335 189.992537,81.2835821 C190.08287,81.4029827 190.123033,81.5529254 190.104478,81.7014925 L190.104478,84.8955224 L186.320896,84.8955224 L186.320896,81.5223881 C186.312999,81.4274633 186.348697,81.3340985 186.41791,81.2686567 C186.521714,81.1941929 186.648925,81.1597397 186.776119,81.1716418 L187.671642,81.1716418 L187.671642,80.1716418 L182.358209,80.1716418 L182.358209,81.1716418 L183.149254,81.1716418 C183.299858,81.1570272 183.450725,81.1967292 183.574627,81.2835821 C183.669099,81.4011133 183.71215,81.5517921 183.69403,81.7014925 L183.69403,89.8283582 C183.708313,89.9523071 183.676432,90.0771737 183.604478,90.1791045 C183.526905,90.2477806 183.423841,90.2803271 183.320896,90.2686567 L182.358209,90.2686567 L182.358209,91.2686567 L187.671642,91.2686567 L187.671642,90.2985075 L186.649254,90.2985075 C186.560412,90.3048375 186.473221,90.2721411 186.410448,90.2089552 C186.340926,90.1059174 186.309278,89.9819632 186.320896,89.858209 L186.320896,86.1268657 L190.104478,86.1268657 L190.104478,89.858209 C190.118761,89.9821578 190.08688,90.1070244 190.014925,90.2089552 C189.921168,90.2801387 189.803482,90.3122351 189.686567,90.2985075 L188.80597,90.2985075 L188.80597,91.2985075 L194.126866,91.2985075 L194.126866,90.2985075 L193.216418,90.2985075 C193.089335,90.3087381 192.963333,90.2685247 192.865672,90.1865672 C192.773135,90.0709368 192.730199,89.9233443 192.746269,89.7761194 L192.746269,81.6044776 C192.734148,81.4852823 192.771976,81.3663951 192.850746,81.2761194 C192.979959,81.1889903 193.136462,81.1518542 193.291045,81.1716418 L194.126866,81.1716418 L194.126866,80.1716418 L188.80597,80.1716418 L188.80597,81.1716418 Z" id="Path" fill="#808285"></path>
                <path d="M197.761194,81.1716418 L198.88806,81.1716418 C199.030419,81.1589308 199.172794,81.1958427 199.291045,81.2761194 C199.374171,81.3641836 199.415009,81.4839759 199.402985,81.6044776 L199.402985,89.858209 C199.413803,89.9733416 199.369524,90.0868064 199.283582,90.1641791 C199.126571,90.2505926 198.946931,90.2870413 198.768657,90.2686567 L197.761194,90.2686567 L197.761194,91.2686567 L203.61194,91.2686567 L203.61194,90.2985075 L202.559701,90.2985075 C202.394061,90.3121708 202.2286,90.2701489 202.089552,90.1791045 C202.019672,90.0992382 201.987105,89.9933952 202,89.8880597 L202,81.5149254 C201.991238,81.4213131 202.023972,81.3285677 202.089552,81.261194 C202.19489,81.1905558 202.321574,81.1588848 202.447761,81.1716418 L203.61194,81.1716418 L203.61194,80.1716418 L197.761194,80.1716418 L197.761194,81.1716418 Z" id="Path" fill="#808285"></path>
                <path d="M213.932836,80.1716418 L207.462687,80.1716418 L207.462687,81.1716418 L208.656716,81.1716418 C208.766968,81.1688472 208.873995,81.2089824 208.955224,81.2835821 C209.035965,81.3705051 209.078909,81.4859181 209.074627,81.6044776 L209.074627,89.8134328 C209.0849,89.9373261 209.041405,90.0596552 208.955224,90.1492537 C208.849932,90.2332828 208.716249,90.2733878 208.58209,90.261194 L207.462687,90.261194 L207.462687,91.261194 L213.522388,91.261194 L213.522388,90.2985075 L212.126866,90.2985075 C212.00946,90.3040193 211.894473,90.2639075 211.80597,90.1865672 C211.719789,90.0969686 211.676294,89.9746396 211.686567,89.8507463 L211.686567,86.5 L213.522388,86.5 C214.182576,86.4952875 214.837709,86.3844189 215.462687,86.1716418 C216.08536,85.9708767 216.637147,85.5952472 217.052239,85.0895522 C217.446719,84.5879944 217.657426,83.9664086 217.649254,83.3283582 C217.659685,82.4652821 217.281547,81.6432434 216.619403,81.0895522 C215.869407,80.4597485 214.911411,80.132433 213.932836,80.1716418 L213.932836,80.1716418 Z M214.731343,84.5447761 C214.566825,84.8276194 214.322915,85.0559606 214.029851,85.2014925 C213.669625,85.3937273 213.266471,85.4913061 212.858209,85.4850746 L211.686567,85.4850746 L211.686567,81.5373134 C211.686567,81.3507463 211.753731,81.2910448 211.80597,81.261194 C212.07129,81.1670139 212.354427,81.1338537 212.634328,81.1641791 C213.211522,81.1141559 213.790601,81.236204 214.298507,81.5149254 C214.777183,81.9533162 215.018315,82.5935624 214.947761,83.238806 C214.976359,83.6849472 214.902324,84.131708 214.731343,84.5447761 Z" id="Shape" fill="#808285"></path>
                <path d="M228.19403,80.1716418 L228.19403,81.1716418 L229.104478,81.1716418 C229.320812,81.1454922 229.540177,81.1790422 229.738806,81.2686567 C229.825161,81.3421547 229.867481,81.4550078 229.850746,81.5671642 L229.850746,89.7761194 C229.85427,89.9018073 229.805651,90.0233552 229.716418,90.1119403 C229.602718,90.2032048 229.458909,90.2484781 229.313433,90.238806 L228.19403,90.238806 L228.19403,91.238806 L234.223881,91.238806 L234.223881,90.2985075 L233.044776,90.2985075 C232.874227,90.3028409 232.70855,90.2413802 232.58209,90.1268657 C232.497759,90.0365046 232.456901,89.9139319 232.470149,89.7910448 L232.470149,86.0597015 L233.044776,86.0597015 C233.661673,86.0476856 234.227114,86.4021845 234.485075,86.9626866 C234.653916,87.3377616 234.738001,87.7454447 234.731343,88.1567164 L234.731343,88.3134328 L235.686567,88.3134328 L235.686567,83.0149254 L234.746269,83.0149254 L234.746269,83.1567164 C234.58209,84.4552239 234,85.0820896 232.902985,85.0820896 L232.485075,85.0820896 L232.485075,81.5671642 C232.474076,81.4593392 232.512489,81.3523323 232.589552,81.2761194 C232.707804,81.1958427 232.850178,81.1589308 232.992537,81.1716418 L234.589552,81.1716418 C235.257381,81.114209 235.919202,81.3357164 236.41791,81.7835821 C236.896091,82.4496627 237.15674,83.2472465 237.164179,84.0671642 L237.164179,84.2089552 L238.126866,84.2089552 L238.007463,80.1716418 L228.19403,80.1716418 Z" id="Path" fill="#808285"></path>
                <path d="M250.201493,80.6567164 C249.320882,80.1590596 248.324897,79.9016992 247.313433,79.9104478 C245.811934,79.8773557 244.364763,80.4724544 243.320896,81.5522388 C242.237788,82.6626534 241.653155,84.165997 241.701493,85.7164179 C241.68516,86.7595556 241.942461,87.7887631 242.447761,88.7014925 C242.924488,89.5484875 243.617151,90.2540255 244.455224,90.7462687 C245.330067,91.2514373 246.325741,91.5093837 247.335821,91.4925373 C248.858472,91.5252085 250.325278,90.919001 251.380597,89.8208955 C252.455205,88.7121308 253.034159,87.2149278 252.985075,85.6716418 C253.001408,84.6285041 252.744106,83.5992966 252.238806,82.6865672 C251.751752,81.8412329 251.048608,81.1406652 250.201493,80.6567164 Z M249.313433,89.3880597 C248.893783,90.0600541 248.150223,90.4602146 247.358209,90.4402985 C246.83935,90.4473379 246.331912,90.2877825 245.910448,89.9850746 C245.455404,89.6281995 245.123894,89.1374603 244.962687,88.5820896 C244.698329,87.6431995 244.582501,86.6687285 244.619403,85.6940299 C244.585812,84.7272595 244.711882,83.7615669 244.992537,82.8358209 C245.152531,82.2530898 245.485619,81.7326399 245.947761,81.3432836 C246.357141,81.0462861 246.85257,80.8916283 247.358209,80.9029851 C247.873997,80.8932598 248.379145,81.0503006 248.798507,81.3507463 C249.24809,81.6954436 249.577202,82.1734398 249.738806,82.7164179 C249.994578,83.646602 250.105333,84.6106742 250.067164,85.5746269 C250.067164,87.4029851 249.813433,88.6791045 249.313433,89.3880597 Z" id="Shape" fill="#808285"></path>
                <path d="M266.768657,88.6641791 C266.708955,89.4104478 266.559701,89.7910448 266.350746,89.7910448 C266.350746,89.7910448 266.253731,89.7910448 266.164179,89.6716418 C266.022973,89.4104438 265.924703,89.1282319 265.873134,88.8358209 C265.70828,88.1645865 265.45745,87.5174459 265.126866,86.9104478 C264.917599,86.530607 264.624003,86.2038217 264.268657,85.9552239 C264.100295,85.8476035 263.919977,85.7599488 263.731343,85.6940299 C264.348771,85.6013988 264.940598,85.3829562 265.470149,85.0522388 C266.175079,84.6087635 266.601146,83.8328144 266.597015,83 C266.601143,82.4827099 266.4447,81.976877 266.149254,81.5522388 C265.804134,81.0897617 265.332364,80.7372303 264.791045,80.5373134 C264.055606,80.2684165 263.275114,80.1442473 262.492537,80.1716418 L256.716418,80.1716418 L256.716418,81.1716418 L257.798507,81.1716418 C257.914811,81.1648252 258.029406,81.2021351 258.119403,81.2761194 C258.198671,81.3863858 258.235743,81.521434 258.223881,81.6567164 L258.223881,89.7835821 C258.235291,89.9166185 258.192199,90.048587 258.104478,90.1492537 C257.998806,90.2385723 257.861636,90.2816062 257.723881,90.2686567 L256.716418,90.2686567 L256.716418,91.2686567 L262.5,91.2686567 L262.5,90.2985075 L261.358209,90.2985075 C261.210878,90.3032859 261.067102,90.2526981 260.955224,90.1567164 C260.883306,90.0837627 260.847728,89.9825018 260.858209,89.880597 L260.858209,86.0671642 L261.492537,86.0671642 C261.755715,86.0593146 262.015343,86.1294143 262.238806,86.2686567 C262.46145,86.4260704 262.634837,86.6434508 262.738806,86.8955224 C262.954353,87.4735131 263.114281,88.0707446 263.216418,88.6791045 C263.298533,89.186239 263.423355,89.6855277 263.589552,90.1716418 C263.72068,90.5378595 263.963429,90.853693 264.283582,91.0746269 C265.194891,91.5919613 266.336361,91.4590919 267.104478,90.7462687 C267.544761,90.1599719 267.773599,89.4418935 267.753731,88.7089552 L267.753731,88.5373134 L266.791045,88.5373134 L266.768657,88.6641791 Z M260.798507,81.8358209 C260.798507,81.4328358 260.880597,81.3208955 260.91791,81.2910448 C260.955224,81.261194 261.089552,81.1791045 261.664179,81.1791045 C262.260022,81.1172878 262.858309,81.2708304 263.350746,81.6119403 C263.692642,81.9923499 263.860339,82.4981453 263.813433,83.0074627 C263.877005,83.5492823 263.705912,84.0924335 263.343284,84.5 C262.835547,84.9135604 262.190988,85.121311 261.537313,85.0820896 L260.791045,85.0820896 L260.798507,81.8358209 Z" id="Shape" fill="#808285"></path>
                <path d="M278.619403,81.1716418 L278.940299,81.1716418 C279.28996,81.1548501 279.629005,81.294296 279.865672,81.5522388 C280.125636,81.8992009 280.250323,82.3289734 280.216418,82.761194 L280.216418,87.3134328 C280.230247,87.8286241 280.122887,88.3398624 279.902985,88.8059701 C279.734332,89.1788998 279.455715,89.4913671 279.104478,89.7014925 C278.642717,89.9375701 278.130518,90.057937 277.61194,90.0522388 C276.973078,90.0909487 276.346588,89.8641162 275.880597,89.4253731 C275.434651,88.9277702 275.208598,88.2711403 275.253731,87.6044776 L275.253731,81.6343284 C275.24086,81.5023859 275.275239,81.3701579 275.350746,81.261194 C275.409444,81.1914056 275.498814,81.1550992 275.589552,81.1641791 L276.865672,81.1641791 L276.865672,80.1641791 L271.119403,80.1641791 L271.119403,81.1641791 L272.074627,81.1641791 C272.365672,81.1641791 272.485075,81.2238806 272.537313,81.2761194 C272.589552,81.3283582 272.649254,81.4253731 272.649254,81.738806 L272.649254,87.7910448 C272.619373,88.4825674 272.779386,89.1690739 273.11194,89.7761194 C273.472816,90.3461518 274.002329,90.7895858 274.626866,91.0447761 C275.413064,91.3741092 276.259771,91.5342971 277.11194,91.5149254 C278.265206,91.5760966 279.398719,91.1973698 280.283582,90.4552239 C281.057758,89.7443617 281.480674,88.7293633 281.440299,87.6791045 L281.440299,82.7164179 C281.427704,82.3233828 281.534371,81.9357399 281.746269,81.6044776 C281.936228,81.3295872 282.256017,81.1739376 282.589552,81.1940299 L283.037313,81.1940299 L283.037313,80.1940299 L278.604478,80.1940299 L278.619403,81.1716418 Z" id="Path" fill="#808285"></path>
                <path d="M298.432836,81.2537313 C298.546745,81.1840569 298.680932,81.1551146 298.813433,81.1716418 L299.940299,81.1716418 L299.940299,80.1716418 L296.074627,80.1716418 L296.074627,80.0298507 L296.029851,80.1716418 L295.216418,80.1716418 L292.88806,87.1268657 L290.559701,80.1716418 L288.320896,80.1716418 L288.246269,79.9328358 L288.246269,80.1716418 L285.91791,80.1716418 L285.91791,81.1716418 L286.932836,81.1716418 C287.261194,81.1716418 287.373134,81.2313433 287.410448,81.2686567 C287.447761,81.3059701 287.514925,81.4029851 287.514925,81.7462687 L287.514925,88.7089552 C287.533098,89.1086469 287.390034,89.4988996 287.117836,89.7921436 C286.845639,90.0853877 286.467101,90.2570665 286.067164,90.2686567 L285.91791,90.2686567 L285.91791,91.2537313 L290.298507,91.2537313 L290.298507,90.2985075 L290.149254,90.2985075 C289.723459,90.2788109 289.317514,90.1127425 289,89.8283582 C288.742399,89.5606673 288.604972,89.1995835 288.619403,88.8283582 L288.619403,81.9402985 L291.723881,91.1940299 L291.723881,91.2985075 L292.604478,91.2985075 L295.753731,82.0149254 L295.753731,89.858209 C295.761593,89.9804579 295.72143,90.1009479 295.641791,90.1940299 C295.558097,90.2738128 295.443184,90.3121172 295.328358,90.2985075 L294.134328,90.2985075 L294.134328,91.2985075 L299.940299,91.2985075 L299.940299,90.2985075 L298.925373,90.2985075 C298.750976,90.3082861 298.578121,90.2611441 298.432836,90.1641791 C298.367099,90.0765624 298.337694,89.9669641 298.350746,89.858209 L298.350746,81.6492537 C298.323965,81.5117392 298.353543,81.3692305 298.432836,81.2537313 L298.432836,81.2537313 Z" id="Path" fill="#808285"></path>
                <g id="icon" transform="translate(120.000000, -0.000100)">
                    <path d="M30,0.089652177 C13.5138881,0.089652177 0.149253731,13.4542865 0.149253731,29.9403984 C0.149253731,46.4265104 13.5138881,59.7911447 30,59.7911447 C46.4861119,59.7911447 59.8507463,46.4265104 59.8507463,29.9403984 C59.8219919,13.4662117 46.4741868,0.118406589 30,0.089652177 L30,0.089652177 Z M42.2238806,38.8956223 C40.252095,41.7930611 37.9890708,44.4811837 35.4701493,46.9180104 C33.2304397,45.8507006 30.8157577,45.1983572 28.3432836,44.9926373 C24.8483568,44.7379039 21.3894282,44.1201487 18.0223881,43.1493537 C17.8238796,40.6782655 17.1791306,38.2636171 16.119403,36.022488 C14.5972265,32.8674727 13.4043541,29.5639415 12.5597015,26.164279 C14.6027623,24.7534464 16.3727495,22.9834592 17.7835821,20.9403984 C19.7434467,18.0468865 21.993949,15.361287 24.5,12.9254731 C26.738366,14.0160644 29.1552348,14.6935967 31.6343284,14.9254731 C35.1222891,15.1741152 38.5756228,15.7792613 41.9402985,16.7314432 C42.1324936,19.2116586 42.7801252,21.6352176 43.8507463,23.880697 C45.3704706,27.0375317 46.5656576,30.3405486 47.4179104,33.7389059 C45.3782463,35.1387787 43.6084877,36.8958961 42.1940299,38.9254731 L42.2238806,38.8956223 Z" id="Shape" fill="#FFFFFF"></path>
                    <path d="M30,7.32515822e-05 C13.7978675,0.0213386409 0.542972379,12.9094192 0.0671641791,29.1045776 C2.41044776,29.4777119 11.261194,30.1866671 17.7835821,20.9627865 C25.3432836,10.2538313 30.4701493,7.98517457 37.141791,7.23144322 C42.5223881,6.61204024 48.3358209,7.62696561 50.4253731,8.04487606 C44.8858934,2.86624367 37.583137,-0.0100337894 30,7.32515822e-05 Z" id="Path" fill="url(#linearGradient-1)" style="mix-blend-mode: multiply;"></path>
                    <path d="M16.0895522,36.0523387 C10.5970149,24.1120402 11.1940299,18.5896522 13.8507463,12.4180104 C15.7588128,8.37505753 18.2422958,4.62972397 21.2238806,1.2986074 C9.95806572,4.73955336 1.75681144,14.4666523 0.269184759,26.1519276 C-1.21844192,37.837203 4.28404102,49.3088946 14.3283582,55.4627865 C15.8208955,53.6195029 20.8208955,46.2687567 16.0895522,36.0523387 Z" id="Path" fill="url(#linearGradient-2)" style="mix-blend-mode: multiply;"></path>
                    <path d="M30,59.9106252 C34.9786829,59.9186853 39.8797374,58.6767426 44.2537313,56.2986074 C43.4029851,54.0598014 39.5746269,46.0523387 28.3432836,45.022488 C15.2835821,43.8359208 10.7686567,40.5448761 6.76865672,35.1269656 C3.52985075,30.7538313 1.49253731,25.164279 0.798507463,23.1866671 C-1.28154296,32.0903792 0.824131952,41.4564567 6.5148703,48.6131456 C12.2056086,55.7698344 20.8565725,59.9313366 30,59.9106252 L30,59.9106252 Z" id="Path" fill="url(#linearGradient-3)" style="mix-blend-mode: multiply;"></path>
                    <path d="M30,59.9105577 C46.2050301,59.8933385 59.4644006,47.0041199 59.9402985,30.8060701 C57.5970149,30.4254731 48.7462687,29.7239805 42.2238806,38.9403984 C34.6641791,49.6568164 29.5373134,51.9180104 22.8656716,52.6792044 C18.4213883,53.0471549 13.947253,52.7706634 9.58208955,51.8583089 C15.1185367,57.0378964 22.4184213,59.9167617 30,59.9105577 Z" id="Path" fill="url(#linearGradient-4)" style="mix-blend-mode: multiply;"></path>
                    <path d="M43.8507463,23.880697 C49.3507463,35.8209955 48.7537313,41.3433835 46.0895522,47.5150253 C44.1794776,51.556846 41.6961783,55.3019026 38.7164179,58.6344283 C49.9861129,55.2059544 58.1981736,45.4878565 59.698685,33.8041531 C61.1991965,22.1204497 55.7092783,10.6426379 45.6716418,4.47771188 C44.1791045,6.29114471 39.119403,13.6195029 43.8507463,23.880697 Z" id="Path" fill="url(#linearGradient-5)" style="mix-blend-mode: multiply;"></path>
                    <path d="M30,0 C25.0236847,-0.00806354594 20.1250379,1.23391922 15.7537313,3.61204024 C16.5970149,5.85084621 20.4253731,13.8583089 31.6641791,14.8881596 C44.7164179,16.0747268 49.238806,19.3657716 53.238806,24.7911447 C56.4701493,29.1568164 58.5149254,34.7389059 59.2089552,36.7314432 C61.2919684,27.8253792 59.1866332,18.4557468 53.4938673,11.2968827 C47.8011013,4.13801858 39.1463852,-0.0235120307 30,0 Z" id="Path" fill="url(#linearGradient-6)" style="mix-blend-mode: multiply;"></path>
                </g>
            </g>
        </g>
    </g>
</svg>