<svg height="52" viewBox="0 0 52 52" width="52" xmlns="http://www.w3.org/2000/svg" xmlns:xlink="http://www.w3.org/1999/xlink"><linearGradient id="a"><stop offset="0" stop-color="#f9ed32"/><stop offset="1" stop-color="#0090b8"/></linearGradient><linearGradient id="b" x1="-5.794309%" x2="101.985774%" xlink:href="#a" y1="62.74427%" y2="28.111272%"/><linearGradient id="c" x1="50.987055%" x2="49.676926%" y1="105.056489%" y2=".840452%"><stop offset="0" stop-color="#f9ed32"/><stop offset=".02" stop-color="#f3e93c"/><stop offset="1" stop-color="#0090b8"/></linearGradient><linearGradient id="d" x1="97.570912%" x2="-8.684805%" xlink:href="#a" y1="82.031391%" y2="34.35177%"/><linearGradient id="e" x1="103.601067%" x2="13.500296%" xlink:href="#a" y1="33.635634%" y2="68.272301%"/><linearGradient id="f" x1="48.870074%" x2="50.371565%" xlink:href="#a" y1="-1.653576%" y2="98.580681%"/><linearGradient id="g" x1="-.573512%" x2="112.307125%" xlink:href="#a" y1="16.837268%" y2="67.267731%"/><g fill="none" transform="translate(.011955 -.000087)"><path d="m25.9880451.07769855c-14.2879637 0-25.87064678 11.58268305-25.87064678 25.87064675s11.58268308 25.8706468 25.87064678 25.8706468 25.8706467-11.5826831 25.8706467-25.8706468c-.0249204-14.2776285-11.5930182-25.84572626-25.8706467-25.87064675zm10.5940298 33.63184075c-1.7088808 2.5111137-3.6701684 4.8408199-5.8532338 6.9527364-1.9410816-.9250018-4.033806-1.4903661-6.1766169-1.6686567-3.0289366-.220769-6.0266747-.7561568-8.9447761-1.5975125-.1720407-2.1416097-.7308232-4.234305-1.6492538-6.1766169-1.3192196-2.7343466-2.3530423-5.597407-3.0850746-8.5437811 1.7706527-1.2227216 3.3046416-2.7567105 4.5273632-4.5273632 1.6985493-2.5077104 3.6489847-4.8352299 5.8208955-6.9462686 1.9399172.9451791 4.0345368 1.5323737 6.1830846 1.7333333 3.0228993.2154898 6.0157885.7399498 8.9318408 1.5651741.1665691 2.14952.7278498 4.2499378 1.6557214 6.1960199 1.3170944 2.7359235 2.3529231 5.5985381 3.0915423 8.5437811-1.767709 1.2132231-3.3014997 2.7360582-4.5273632 4.4950249z" fill="#fff"/><path d="m25.9880451.00006348c-14.0418482.01843001-25.52942395 11.18809982-25.94179106 25.22390372 2.03084577.3233831 9.70149254.937811 15.35422886-7.0562189 6.5517413-9.28109452 10.9950249-11.24726368 16.7771144-11.90049751 4.6631841-.53681592 9.7014926.34278607 11.5124378.70497513-4.8008824-4.48814807-11.129938-6.98092187-17.70199-6.97216244z" fill="url(#b)"/><path d="m13.9323237 31.2453602c-4.76019901-10.3482587-4.24278608-15.1343283-1.9402985-20.4830845 1.6536577-3.50389251 3.8060095-6.74984826 6.3900497-9.63681595-9.7637062 2.98215316-16.8714599 11.41230555-18.16073636 21.53954425-1.28927646 10.1272386 3.47954209 20.0693713 12.18461696 25.4027443 1.2935324-1.5975124 5.6268657-7.9681592 1.5263682-16.8223881z" fill="url(#c)"/><path d="m25.9880451 51.9225419c4.3148585.0069853 8.5624391-1.0693649 12.3532338-3.1304155-.7373134-1.9402985-4.0552239-8.8800995-13.7890547-9.7726368-11.318408-1.0283582-15.2313433-3.880597-18.69800996-8.5761194-2.80696518-3.7900498-4.57263682-8.6343284-5.17412936-10.3482587-1.80271036 7.7165504.0222079 15.8338177 4.95418113 22.0362813 4.93197319 6.2024637 12.42947529 9.8090989 20.35377909 9.7911491z" fill="url(#d)"/><path d="m25.9880451 51.9224834c14.0443594-.0149234 25.5358138-11.1855795 25.9482587-25.2238893-2.0308458-.3298508-9.7014925-.937811-15.3542289 7.0497512-6.5517413 9.2875622-10.9950248 11.2472637-16.7771144 11.9069652-3.8517122.3188904-7.7292962.0792644-11.5124378-.7114428 4.7982542 4.4889759 11.1248209 6.9839925 17.6955224 6.9786157z" fill="url(#e)"/><path d="m37.9920252 20.696604c4.7666666 10.3482587 4.2492537 15.1343284 1.9402985 20.4830846-1.655398 3.5029113-3.8075907 6.748627-6.3900498 9.6368159 9.7670691-2.971344 16.8841883-11.3936955 18.1846315-21.5195718 1.3004433-10.1258763-3.4574858-20.07331318-12.1567708-25.41624907-1.2935323 1.57164179-5.6786069 7.92288557-1.5781094 16.81592037z" fill="url(#f)"/><path d="m25.9880451 0c-4.3128066-.00698841-8.5583005 1.06939665-12.3467662 3.13043487.7308458 1.94029851 4.0487562 8.88009953 13.7890547 9.77263683 11.3119403 1.0283582 15.2313433 3.880597 18.69801 8.5825871 2.8004975 3.783582 4.5726368 8.621393 5.1741293 10.3482587 1.8052781-7.7185888-.0193457-15.838937-4.9530762-22.04328585-4.9337305-6.20434888-12.4344845-9.81100874-20.3613516-9.79063165z" fill="url(#g)"/></g></svg>