<svg viewBox="0 0 36 36" xmlns="http://www.w3.org/2000/svg" xmlns:xlink="http://www.w3.org/1999/xlink"><linearGradient id="a"><stop offset="0" stop-color="#f9ed32"/><stop offset="1" stop-color="#0090b8"/></linearGradient><linearGradient id="b" x1="-5.794309%" x2="101.985774%" xlink:href="#a" y1="63.561477%" y2="26.70769%"/><linearGradient id="c" x1="51.063845%" x2="49.651792%" y1="105.056489%" y2=".840452%"><stop offset="0" stop-color="#f9ed32"/><stop offset=".02" stop-color="#f3e93c"/><stop offset="1" stop-color="#0090b8"/></linearGradient><linearGradient id="d" x1="97.570912%" x2="-8.684805%" xlink:href="#a" y1="80.861972%" y2="34.923064%"/><linearGradient id="e" x1="103.601067%" x2="13.500296%" xlink:href="#a" y1="32.589983%" y2="69.439866%"/><linearGradient id="f" x1="48.786145%" x2="50.399164%" xlink:href="#a" y1="-1.653576%" y2="98.580681%"/><linearGradient id="g" x1="-.573512%" x2="112.307125%" xlink:href="#a" y1="18.058485%" y2="66.631847%"/><g fill="none"><path d="m18 0c-9.9411255 0-18 8.0588745-18 18s8.0588745 18 18 18 18-8.0588745 18-18c-.0173389-9.93393462-8.0660654-17.98266109-18-18zm7.371 23.4c-1.1889867 1.7471556-2.5535903 3.3680935-4.0725 4.8375-1.3505448-.6435878-2.8065981-1.0369509-4.2975-1.161-2.1074409-.1536042-4.1931748-.5261106-6.2235-1.1115-.1197006-1.4900661-.5084843-2.9460992-1.1475-4.2975-.91787244-1.9024742-1.63717447-3.8945035-2.1465-5.9445 1.23196566-.8507321 2.29926793-1.9180343 3.15-3.15 1.1817983-1.7447877 2.5388513-3.36420421 4.05-4.833 1.3497347.65762658 2.8071066 1.06617853 4.302 1.206 2.1032403.14993121 4.1856005.51483429 6.2145 1.089.1158936 1.4955698.5064155 2.9569759 1.152 4.311.9163938 1.9035713 1.6370915 3.8952905 2.151 5.9445-1.2299175.8441233-2.2970819 1.9036651-3.15 3.1275z" fill="#fff"/><path d="m17.8319502 0c-9.65212991.01306834-17.548496 7.93325177-17.8319502 17.8857521 1.39596918.2293043 6.66864256.6649824 10.5542383-5.0034199 4.5035566-6.58103354 7.5577949-7.97520371 11.5323059-8.4383984 3.2053942-.38064514 6.6686425.24306256 7.9134558.49988338-3.3000457-3.18245362-7.6505319-4.95002832-12.1680498-4.94381718z" fill="url(#b)"/><path d="m9.85087476 21.5323781c-3.36883166-7.054285-3.00265431-10.3168917-1.37316508-13.96307526 1.17030703-2.38856184 2.69354402-4.60129128 4.52229032-6.56930284-6.90985453 2.03289836-11.94006979 7.77963301-12.85250125 14.6832512-.91243147 6.9036182 2.46250031 13.6810518 8.62315281 17.3167488.91544339-1.0890052 3.98217874-5.4317994 1.0802232-11.4676219z" fill="url(#c)"/><path d="m18.3008297 36c3.0385315.0048285 6.0296856-.7391746 8.6991703-2.1638297-.5192175-1.341188-2.8556962-6.1381704-9.710278-6.7551168-7.97044397-.7108297-10.72594031-2.682376-13.16717343-5.9280509-1.97667011-2.6197872-3.22005936-5.9682865-3.64363153-7.1530026-1.269472 5.3338931.01563884 10.9447726 3.48874358 15.232087 3.47310473 4.2873144 8.75285958 6.7803204 14.33316908 6.767913z" fill="url(#d)"/><path d="m18.163604 36c9.6538562-.0105807 17.5528883-7.9306244 17.836396-17.8838471-1.3959692-.2338656-6.6686426-.664912-10.5542383 4.9983043-4.5035566 6.5849219-7.5577949 7.9743588-11.5323059 8.44209-2.6476021.2260947-5.31298798.0561988-7.9134558-.504416 3.29823911 3.1827034 7.6470145 4.951681 12.163604 4.9478688z" fill="url(#e)"/><path d="m26.1444129 14.4647926c3.3683609 7.055257 3.0027315 10.3183134 1.3711103 13.9649993-1.1697856 2.388222-2.6906307 4.6010927-4.5155232 6.5702081 6.901891-2.025809 11.9311972-7.7680171 12.8501543-14.6716577s-2.4432294-13.68562453-8.5905717-17.3283423c-.9140735 1.07151716-4.0127827 5.40168114-1.1151697 11.4647926z" fill="url(#f)"/><path d="m17.6942718 0c-3.0369663-.0048296-6.0265328.73904591-8.6942718 2.1634022.5146426 1.34091468 2.8510289 6.13691951 9.7098939 6.75374026 7.9655743.71068478 10.7255161 2.68182934 13.1666526 5.93131264 1.9720376 2.6147836 3.219932 5.9581308 3.6434874 7.1515449 1.2712299-5.3342148-.0136227-10.9460802-3.4878275-15.23382375-3.4742048-4.28774358-8.7560408-6.78025859-14.3379346-6.76617625z" fill="url(#g)"/></g></svg>