<svg viewBox="0 0 200 62" xmlns="http://www.w3.org/2000/svg" xmlns:xlink="http://www.w3.org/1999/xlink"><linearGradient id="a"><stop offset="0" stop-color="#f9ed32"/><stop offset="1" stop-color="#0090b8"/></linearGradient><linearGradient id="b" x1="-5.794309%" x2="101.985774%" xlink:href="#a" y1="62.74427%" y2="28.111272%"/><linearGradient id="c" x1="50.987055%" x2="49.676926%" y1="105.056489%" y2=".840452%"><stop offset="0" stop-color="#f9ed32"/><stop offset=".02" stop-color="#f3e93c"/><stop offset="1" stop-color="#0090b8"/></linearGradient><linearGradient id="d" x1="97.570912%" x2="-8.684805%" xlink:href="#a" y1="82.031391%" y2="34.35177%"/><linearGradient id="e" x1="103.601067%" x2="13.500296%" xlink:href="#a" y1="33.635634%" y2="68.272301%"/><linearGradient id="f" x1="48.870074%" x2="50.371565%" xlink:href="#a" y1="-1.653576%" y2="98.580681%"/><linearGradient id="g" x1="-.573512%" x2="112.307125%" xlink:href="#a" y1="16.837268%" y2="67.267731%"/><g fill="none"><g fill="#808285"><path d="m4.26865672 54.1144279h.52736318c.10363847-.0112857.2078682.0152134.29353234.0746268.06022179.0796004.08699727.1795622.07462686.278607v2.1293532h-2.52736318v-2.2487562c-.00327659-.0639687.02228214-.1260399.06965174-.1691542.06879605-.0504917.15393204-.0735494.23880597-.0646766h.59701493v-.6666667h-3.54228856v.6666667h.52736318c.10040255-.0097431.20098087.0167249.28358209.0746268.06059708.0795687.08901605.1790351.07960199.278607v5.4179104c.00952203.0826326-.01173186.165877-.05970149.2338309-.05171517.0457841-.1204245.0674818-.18905473.0597015h-.64179104v.6666666h3.54228856v-.6467661h-.68656717c-.05913152.0035664-.11699788-.0181335-.15920398-.0597015-.04424703-.0696173-.06515912-.151523-.05970149-.2338309v-2.4875622h2.52736318v2.4875622c.00952203.0826326-.01173186.165877-.05970149.2338309-.06295183.0465407-.14104169.0678379-.21890547.0597015h-.61691542v.6666666h3.54726368v-.6666666h-.60696518c-.08324387.0071453-.16582554-.0197835-.22885572-.0746269-.06169103-.0770869-.09031504-.1754819-.07960199-.2736318v-5.4477612c-.00808015-.0794636.01713836-.1587217.06965174-.2189055.03482587-.0348259.11442786-.0696517.29353234-.0696517h.55223881v-.6666667h-3.54726368z"/><path d="m16.4776119 60.1044776c-.0982029-.0873701-.1719367-.1988283-.2139303-.3233831l-2.6965174-6.4676617-.0248756-.0646766h-.6915423l-2.6019901 6.2338309c-.0905556.2150768-.2302823.405923-.40796018.5572139-.11130848.0933022-.25281195.1428284-.39800995.1393035h-.25870647v.6666666h2.9402985v-.6467661h-.3333333c-.2032067.0133133-.4044478-.046706-.5671642-.1691543-.1314353-.1043885-.2053299-.2651092-.199005-.4328358.0233889-.1732594.0755137-.3414041.1542289-.4975124l.2288557-.5373134h2.5472637l.5273632 1.2636815c.0278438.0647429.0446596.133688.0497512.2039801-.0003151.0574608-.0358799.1088321-.0895522.1293533-.1472824.0565464-.305544.078669-.4626866.0646766h-.4228856v.6666667h3.5870647v-.6915423h-.3681592c-.1067288-.0008717-.2107312-.0338058-.2985075-.0945274zm-2.8109452-2.278607h-1.9900498l.9950249-2.3532338z"/><path d="m27.9402985 53.4477612h-2.5671642v.6666667h.3134329c.1261543-.0077367.249497.0394238.3383084.1293532.0922683.1032377.1373402.2402565.1243781.3781094-.000358.1015361-.0171593.2023438-.0497512.2985075l-1.0945274 3.4228856-1.3134328-3.9303483c-.0065672-.0328424-.0065672-.06666 0-.0995025-.0059914-.0560543.0212134-.110464.0696517-.1393034.1251775-.0543251.2624027-.0749089.39801-.0597015h.4129353v-.6666667h-3.5572139v.6666667h.4577114c.1276426-.0070243.2548199.0204735.3681592.079602.067506.0530358.1163112.1262435.1393035.2089552l.2039801.5970149-1.1243781 3.3532338-1.3283582-3.9353234c-.0183325-.05458-.0283942-.1115961-.0298508-.1691542-.0041761-.0363012.0109166-.0721464.039801-.0945273.0918639-.0352081.1905923-.0488258.2885572-.039801h.3681593v-.6666667h-3.0945274v.6666667h.3383084c.0790004-.0036863.1572054.0171684.2238806.0597015.0697373.0594049.1185665.1396245.1393035.2288557l2.2238806 6.5771144h.7462687l1.6169154-4.8109453 1.6169154 4.8109453h.7512438l2.0199005-6.2537313c.0464627-.1812449.1513797-.3421177.2985075-.4577115.1649089-.1091886.3595123-.1647895.5572139-.159204h.1044776z"/><path d="m35.1840796 60.1044776c-.1003783-.0864537-.1759337-.1980696-.2189055-.3233831l-2.6915423-6.4676617-.0298507-.0646766h-.6865672l-2.6069651 6.2139304c-.0890481.2159268-.2290166.4071034-.4079602.5572139-.1097826.0925624-.2494648.14207-.3930349.1393035h-.2636816v.6666666h2.960199v-.6268656h-.3383084c-.2031565.0128701-.4042471-.0471043-.5671642-.1691543-.1283069-.1063767-.1999844-.2662728-.1940298-.4328358.0209093-.1737977.0731645-.3423627.1542288-.4975124l.2238806-.5373134h2.5472637l.5273632 1.2636815c.0302177.0639257.0471432.1333204.0497512.2039801-.0007744.055855-.033721.106244-.0845771.1293533-.1474126.0560401-.3055575.0781464-.4626866.0646766h-.4228855v.6666667h3.5870646v-.6915423h-.3731343c-.1104647.0036281-.2189926-.0296305-.3084577-.0945274zm-2.8159204-2.278607h-1.9900497l.9950248-2.3532338z"/><path d="m37.3134328 54.1144279h.7512438c.0949061-.008474.1898226.0161339.2686567.0696517.0554174.0587095.0826429.138571.0746269.2189055v5.5024875c.0072119.0767551-.0223074.1523983-.079602.2039801-.104674.057609-.224434.0819081-.3432836.0696518h-.6716418v.6666666h3.9004975v-.6467661h-.6915422c-.1104268.0091089-.2207344-.0189057-.3134329-.079602-.0465867-.0532442-.0682981-.1238062-.0597015-.1940299v-5.5820895c-.0058413-.0624082.0159812-.1242384.0597015-.1691542.0702255-.0470922.1546813-.0682062.238806-.0597015h.7761194v-.6666667h-3.9104478z"/><path d="m43.7164179 54.9104478h-.1691542-.1243781-.0298508c-.0020103-.0098487-.0020103-.0200021 0-.0298508.0270219-.2020228.1176288-.3902063.2587065-.5373134.2200686-.2577544.4933239-.4648174.800995-.6069652l.0995025-.0497512-.2736318-.4527364-.0895523.0447762c-.486238.2052254-.9112368.532543-1.2338308.9502487-.2759692.3420934-.4331344.7646933-.4477612 1.2039801-.0129109.351362.1079985.6945315.3383084.960199.2075007.2466046.5135323.3886907.8358209.3880597.2558443.0048179.5023778-.0959549.6815921-.2786069.1783754-.1749624.2788776-.41432.2788776-.6641791 0-.2498592-.1005022-.4892168-.2788776-.6641791-.1713343-.1713278-.4044826-.2663805-.6467662-.2636816z"/><path d="m45.9303483 54.1144279h.7512437c.0949062-.008474.1898226.0161339.2686568.0696517.0554173.0587095.0826429.138571.0746268.2189055v5.5024875c.0072119.0767551-.0223074.1523983-.079602.2039801-.104674.057609-.224434.0819081-.3432836.0696518h-.6716417v.6666666h3.9004975v-.6467661h-.7014926c-.1104268.0091089-.2207343-.0189057-.3134328-.079602-.0465867-.0532442-.0682981-.1238062-.0597015-.1940299v-5.5820895c-.0058413-.0624082.0159811-.1242384.0597015-.1691542.0702255-.0470922.1546813-.0682062.238806-.0597015h.7761194v-.6666667h-3.9004975z"/><path d="m62.6865672 57.960199c-.1009056.6217461-.3557382 1.2083741-.7412936 1.7064677-.2441915.3018406-.6070374.4832636-.9950248.4975124h-1.0348259c-.3134329 0-.3930348-.0447761-.4079602-.0597015s-.0646766-.079602-.0646766-.3383084v-5.3283583c-.0089206-.0910498.0178322-.1820094.0746268-.2537313.0298508-.0298507.1094528-.0696517.2985075-.0696517h.7263682v-.6666667h-3.9004976v.6666667h.676617c.1071113-.0124385.2153644.0102597.3084577.0646766.0512163.0549658.076554.1291689.0696517.2039801v5.4726368c.0063465.0816386-.0205664.1623776-.0746269.2238806-.0668926.0549392-.1525337.0817021-.2388059.0746269h-.7412936v.6666666h6.5422886l.1791045-2.9850746h-.6766169z"/><path d="m71.5422886 57.9900498c-.034311.6098738-.2706071 1.1909871-.6716418 1.6517412-.3635235.3615768-.8607552.5561457-1.3731344.5373135h-.840796c-.1331819.0093786-.2662314-.019996-.3830846-.0845771 0 0-.0597015-.039801-.0597015-.159204v-2.5522388h.1691543c.326821-.0254443.6494824.0863155.8905472.3084577.2330221.3178756.3506112.7057441.3333334 1.0995025v.1044776h.6467661v-3.5572139h-.641791v.0995024c-.0002469.3606792-.1210802.7109208-.3432836.9950249-.2203514.2091077-.5176957.3172329-.8208955.2985075h-.2288557v-2.3830846c-.0060793-.0648632.0177288-.1289619.0646766-.1741293.0778518-.0465111.1683461-.0673944.2587065-.0597015h.9950248c.3118075-.0136114.6223279.0478102.9054727.1791044.2334737.1247125.4254185.3149282.5522388.5472637.1893845.3915127.3121305.8118758.3631841 1.2437811v.0895523h.6318408l-.1542289-2.7263682h-6.4676617v.6666667h.6766169c.1177161-.0113725.2363188.009254.3432836.0597015.0508263.0427789.0769543.1080988.0696517.1741293v5.5273632c.0049976.0823442-.0237421.1631746-.0796019.2238806-.0725058.0593481-.1653791.0879245-.2587065.079602h-.7512438v.6666666h6.7313433l.119403-2.9502487h-.6467662z"/><path d="m81.5074627 60.1044776c-.0982029-.0873701-.1719368-.1988283-.2139304-.3233831l-2.6965174-6.4676617v-.0646766h-.6915423l-2.60199 6.2139304c-.0890481.2159268-.2290166.4071034-.4079602.5572139-.1113085.0933022-.252812.1428284-.39801.1393035h-.2587064v.6666666h2.9402985v-.6268656h-.3333334c-.2032066.0133133-.4044478-.046706-.5671641-.1691543-.1314354-.1043885-.2053299-.2651092-.199005-.4328358.0233889-.1732594.0755137-.3414041.1542288-.4975124l.2288558-.5373134h2.5472636l.5273632 1.2636815c.0278438.0647429.0446597.133688.0497513.2039801-.0003151.0574608-.0358799.1088321-.0895523.1293533-.1472823.0565464-.3055439.078669-.4626865.0646766h-.4278607v.6666667h3.5870647v-.6915423h-.3681593c-.1135011.0032554-.2250695-.0298664-.3184079-.0945274zm-2.8109453-2.278607h-1.9900497l.9950248-2.3532338z"/><path d="m89.7363184 53.9054726c-.583823-.3128737-1.2382467-.4704836-1.9004975-.4577114h-3.9800995v.6666667h.6368159c.1131586-.0128713.2273077.0134708.3233831.0746268.0579461.0634533.0867968.148202.079602.2338309v5.4129353c.0069443.0940046-.0234443.1869579-.0845771.2587065-.0680626.0640692-.1608398.0949949-.2537314.0845771h-.7014925v.6666666h4.1144279c.6388412-.0009417 1.2658072-.1727132 1.8159204-.4975124.5432605-.3039916.9872314-.7583276 1.2786069-1.3084577.291519-.5974485.4364841-1.2557604.4228856-1.920398.0115688-.6587504-.1405766-1.3100693-.4427861-1.8955224-.3024227-.5545691-.7561956-1.0117927-1.3084577-1.318408zm-3.0746269.4975125c0-.159204.0597015-.199005.0746269-.2089552.1785469-.0630323.3689761-.0851357.5572139-.0646767.4496282-.0280532.8984346.0665229 1.2985075.2736319.3226376.2242005.5636116.5472454.6865672.920398.2013397.6092673.293961 1.2491963.2736318 1.8905472.0277259.595242-.0463046 1.1908515-.2189055 1.7611941-.1364479.3554531-.3820357.6585188-.7014925.8656716-.3344825.2162665-.7261662.3271858-1.1243781.318408h-.5223881c-.0871254.0082373-.1741585-.0166293-.2437811-.0696518-.0538818-.0823962-.0784198-.1805482-.0696517-.2786069z"/><path d="m100.104478 57.9900498c-.034311.6098738-.2706074 1.1909871-.6716422 1.6517412-.359784.3693881-.8576832.5714341-1.3731343.557214h-.8656716c-.1331189.0085392-.2659353-.0207839-.3830846-.0845771 0 0-.0597015-.039801-.0597015-.159204v-2.5522388h.1691542c.326821-.0254443.6494825.0863155.8905473.3084577.233022.3178756.3506111.7057441.3333333 1.0995025v.1044776h.6467662v-3.5572139h-.6417911v.0995024c.0020933.3610684-.1189978.7120573-.3432836.9950249-.2196976.2101621-.5175194.318461-.8208955.2985075h-.2288557v-2.3830846c-.0060792-.0648632.0177288-.1289619.0646766-.1741293.0793946-.0472198.1716904-.0681169.2636816-.0597015h.9950249c.3133558-.0128732.6253178.0484964.9104478.1791044.2309517.1264006.4208631.316312.5472636.5472637.1893845.3915127.3121305.8118758.3631841 1.2437811v.0895523h.6318405l-.154229-2.7263682h-6.4676612v.6666667h.6766169c.1192881-.0103647.2392338.0101974.3482587.0597015.0469478.0451674.0707558.1092661.0646766.1741293v5.5273632c.0049976.0823442-.0237421.1631746-.079602.2238806-.0725057.0593481-.165379.0879245-.2587065.079602h-.7512437v.6666666h6.7313432l.119403-2.9502487h-.646766z"/><path d="m110.21393 59.1094527c-.034826.4975125-.139303.7512438-.278607.7512438 0 0-.064676 0-.124378-.079602-.092704-.1747606-.158137-.3626707-.19403-.5572139-.109903-.4474896-.277123-.8789167-.497512-1.2835821-.139511-.2532272-.335242-.471084-.572139-.6368159-.112242-.071747-.232454-.1301834-.358209-.1741294.411619-.061754.80617-.2073824 1.159204-.4278607.47114-.2951314.756946-.8122134.756219-1.3681592.000967-.3453495-.105051-.6825222-.303483-.9651741-.23008-.308318-.544593-.543339-.905473-.6766169-.488668-.1788737-1.007293-.261651-1.527363-.2437811h-3.885572v.6666667h.721393c.077536-.0045444.153933.0203288.21393.0696517.052846.0735109.07756.1635431.069652.2537313v5.4179105c.007607.088691-.021121.1766699-.079602.2437811-.070447.0595457-.161894.0882349-.253731.079602h-.671642v.6666666h3.855721v-.6467661h-.761194c-.096834.0039295-.191398-.0299709-.263681-.0945274-.051048-.0468747-.076883-.1151535-.069652-.1840796v-2.5422885h.422886c.175451-.0052331.348537.0415.497512.1343283.14843.1049425.264021.2498627.333333.4179105.145544.3847348.252212.783072.318408 1.1890547.054744.3380897.137959.6709488.248757.9950249.087715.2439831.249483.4544559.462686.60199.239782.1489159.519025.2217619.800995.2089552.405323.02337.800328-.1331757 1.079602-.4278607.293522-.3908645.446081-.8695834.432836-1.3582089v-.1144279h-.641791zm-3.980099-4.5522388c0-.2686567.054726-.3432836.079602-.363184.024875-.0199005.114428-.0746269.497512-.0746269.397229-.0412111.796087.0611506 1.124378.2885572.227931.2536064.339729.5908033.308458.9303483.042381.361213-.07168.7233138-.313433.9950248-.338491.275707-.768197.4142074-1.20398.3880597h-.497512z"/><path d="m117.641791 56.6119403c-.475069-.176134-.964445-.3109621-1.462687-.4029851-.420953-.071546-.832956-.1883082-1.228855-.3482587-.197968-.0769708-.370347-.2079789-.497513-.3781094-.09781-.1469646-.146575-.3211251-.139303-.4975125-.001617-.2970164.134314-.5780612.368159-.761194.28-.227634.634698-.3429108.995025-.3233831.483726.0006961.950638.1775568 1.313433.4975125.45105.4175547.775227.9538264.935323 1.5472636v.0746269h.626866l-.049751-2.6965174h-.497513l-.41791.5920398c-.545373-.4399565-1.224665-.6804293-1.925373-.6815921-.674262-.0313349-1.334314.2005753-1.840796.6467662-.459353.4344822-.711019 1.0446357-.691543 1.6766169-.043493.7450773.367206 1.4426763 1.039801 1.7661692.554594.2737871 1.143687.4712671 1.751244.5870647.368101.0703788.731878.1617384 1.089552.2736318.215514.0750546.406456.2075092.552239.3830846.120181.1697454.181352.3742321.174129.5820895.003536.3248511-.145687.6325067-.402985.8308458-.337238.248325-.751197.3698704-1.169154.3432836-1.253731 0-2.064677-.7213931-2.487562-2.2039801v-.0746269h-.616916v2.8756219h.497513l.532338-.6666667c.571041.476888 1.290847.7391153 2.034826.7412936.772218.0228143 1.525507-.2412798 2.114428-.7412936.480334-.4198519.745425-1.034132.721393-1.6716417.012796-.4210762-.103519-.8359909-.333333-1.1890548-.250152-.3461219-.591044-.6164253-.985075-.7810945z"/><path d="m125.870647 54.1144279h.497512c.103671-.0117453.20806.0147944.293533.0746268.060221.0796004.086997.1795622.074626.278607v2.1293532h-2.522388v-2.2487562c-.005264-.0632832.018535-.1255263.064677-.1691542.069202-.0496426.15401-.0726114.238806-.0646766h.597015v-.6666667h-3.542289v.6666667h.527363c.100403-.0097431.200981.0167249.283583.0746268.062981.0783542.091682.1788067.079602.278607v5.4179104c.009522.0826326-.011732.165877-.059702.2338309-.051715.0457841-.120424.0674818-.189055.0597015h-.641791v.6666666h3.542289v-.6467661h-.681592c-.059228.00422-.117355-.0175776-.159204-.0597015-.046348-.0686919-.067447-.1513281-.059702-.2338309v-2.4875622h2.522388v2.4875622c.009522.0826326-.011731.165877-.059701.2338309-.062505.0474556-.140963.0688532-.218906.0597015h-.587064v.6666666h3.547263v-.6666666h-.606965c-.084722.0068204-.168723-.0199885-.233831-.0746269-.061691-.0770869-.090315-.1754819-.079602-.2736318v-5.4477612c-.00808-.0794636.017139-.1587217.069652-.2189055.086142-.0580861.190477-.0828434.293533-.0696517h.557213v-.6666667h-3.547263z"/><path d="m131.840796 54.1144279h.751244c.094906-.008474.189822.0161339.268657.0696517.055417.0587095.082642.138571.074626.2189055v5.5024875c.007212.0767551-.022307.1523983-.079602.2039801-.104674.057609-.224434.0819081-.343283.0696518h-.671642v.6666666h3.900498v-.6467661h-.701493c-.110427.0091089-.220734-.0189057-.313433-.079602-.046587-.0532442-.068298-.1238062-.059701-.1940299v-5.5820895c-.005842-.0624082.015981-.1242384.059701-.1691542.070226-.0470922.154681-.0682062.238806-.0597015h.77612v-.6666667h-3.900498z"/><path d="m142.621891 53.4477612h-4.313433v.6666667h.79602c.073501-.0018631.144852.0248937.199005.0746268.053827.0579487.082456.1348907.079602.2139304v5.4726368c.006848.0825955-.022148.1641482-.079602.2238806-.070195.0560194-.159317.082756-.248757.0746269h-.746268v.6666666h4.039801v-.641791h-.930349c-.07827.0036745-.154928-.0230666-.21393-.0746269-.057454-.0597324-.08645-.1412851-.079602-.2238806v-2.2338308h1.223881c.440125-.0031417.876881-.0770541 1.293532-.2189055.415116-.1338434.782973-.3842631 1.059702-.721393.262986-.3343719.403458-.7487625.398009-1.1741294.006955-.5753841-.245137-1.1234099-.686567-1.4925373-.499997-.4198691-1.138661-.6380795-1.791044-.6119403zm.532338 2.9154229c-.109679.1885622-.272285.3407897-.467662.4378109-.24015.1281566-.50892.193209-.781094.1890548h-.781095v-2.6318408c0-.1243782.044776-.1641791.079602-.1840796.17688-.0627868.365638-.0848936.552239-.0646767.384796-.0333488.770848.0480166 1.109453.2338309.319117.2922606.479871.7190914.432835 1.1492537.019066.2974275-.030291.595268-.144278.8706468z"/><path d="m152.129353 53.4477612v.6666667h.606965c.144223-.0174331.290467.0049336.422886.0646766.05757.0489986.085783.124234.074627.199005v5.4726368c.002349.0837919-.030064.1648238-.089552.2238806-.0758.060843-.171673.0910251-.268657.0845771h-.746269v.6666666h4.019901v-.6268656h-.78607c-.113699.0028889-.224151-.0380849-.308458-.1144279-.05622-.0602407-.083458-.1419558-.074626-.2238806v-2.4875622h.383084c.411265-.0080105.788225.228322.960199.6019901.112561.25005.168617.5218387.164179.7960199v.1044776h.636816v-3.5323383h-.626866v.0945273c-.109452.8656717-.497512 1.2835821-1.228855 1.2835821h-.278607v-2.3432835c-.007333-.0718834.018276-.1432213.069651-.1940299.078835-.0535178.173751-.0781257.268657-.0696517h1.064677c.445219-.0382886.886433.109383 1.218905.4079602.318788.4440537.492553.9757762.497513 1.522388v.0945274h.641791l-.079602-2.6915423z"/><path d="m166.800995 53.7711443c-.587074-.3317712-1.251063-.5033449-1.925373-.4975125-1.000999-.0220613-1.96578.3746711-2.661692 1.0945274-.722071.7402764-1.111827 1.7425055-1.079602 2.7761194-.010888.6954251.160646 1.3815635.497513 1.9900498.317818.5646633.779593 1.0350219 1.338308 1.363184.583229.3367791 1.247011.5087434 1.920398.4975125 1.015101.0217808 1.992972-.3823576 2.696518-1.1144279.716405-.7391764 1.102374-1.7373118 1.069651-2.7661691.010889-.6954251-.160646-1.3815635-.497512-1.9900498-.324703-.5635561-.793465-1.0306013-1.358209-1.3532338zm-.59204 5.8208955c-.279766.4479963-.775473.71477-1.303482.7014925-.345906.004693-.684198-.1016773-.965174-.3034825-.303363-.2379168-.52437-.5650762-.631841-.9353234-.176239-.6259267-.253458-1.275574-.228856-1.9253732-.022394-.6445136.061652-1.2883086.248756-1.9054726.106663-.3884874.328721-.735454.636816-.9950249.27292-.1979983.603206-.3011035.940299-.2935323.343859-.0064835.680624.0982104.960199.2985074.299722.2297983.51913.5484624.626865.9104478.170515.6201227.244352 1.2628375.218906 1.9054726 0 1.2189055-.169154 2.0696518-.502488 2.5422886z"/><path d="m177.845771 59.1094527c-.039801.4975125-.139303.7512438-.278607.7512438 0 0-.064676 0-.124378-.079602-.094137-.174132-.159651-.3622732-.19403-.5572139-.109903-.4474896-.277123-.8789167-.497512-1.2835821-.139511-.2532272-.335242-.471084-.57214-.6368159-.112241-.071747-.232453-.1301834-.358208-.1741294.411618-.061754.80617-.2073824 1.159204-.4278607.469953-.2956502.753997-.8129495.751243-1.3681592.002752-.3448601-.101543-.682082-.298507-.9651741-.23008-.308318-.544594-.543339-.905473-.6766169-.490293-.1792646-1.01062-.2620441-1.532338-.2437811h-3.850746v.6666667h.721393c.077536-.0045444.153932.0203288.21393.0696517.052845.0735109.07756.1635431.069652.2537313v5.4179105c.007607.088691-.021121.1766699-.079602.2437811-.070448.0595457-.161895.0882349-.253732.079602h-.671641v.6666666h3.855721v-.6467661h-.761194c-.098221.0031856-.194071-.0305396-.268657-.0945274-.047945-.0486358-.071664-.116143-.064676-.1840796v-2.5422885h.422885c.175452-.0052331.348537.0415.497513.1343283.148429.1049425.26402.2498627.333333.4179105.143698.3853271.250317.7834815.318408 1.1890547.054743.3380897.137958.6709488.248756.9950249.087419.2441451.249251.4547008.462687.60199.607539.3448897 1.368519.25631 1.880597-.2189055.293522-.3908645.446081-.8695834.432836-1.3582089v-.1144279h-.641791zm-3.980099-4.5522388c0-.2686567.054726-.3432836.079602-.363184.024875-.0199005.114427-.0746269.497512-.0746269.397229-.0412111.796087.0611506 1.124378.2885572.227931.2536064.339729.5908033.308458.9303483.042381.361213-.071681.7233138-.313433.9950248-.338491.275707-.768197.4142074-1.20398.3880597h-.497512z"/><path d="m185.746269 54.1144279h.21393c.233108-.0111945.459138.0817695.616915.2537313.17331.2313081.256435.5178231.233831.8059702v3.0348258c.00922.3434609-.062354.6842864-.208955.9950249-.112436.2486197-.29818.4569313-.532338.5970149-.30784.1573851-.649307.2376296-.995025.2338309-.425908.0258066-.843568-.1254151-1.154229-.4179105-.297297-.3317353-.447999-.7694885-.41791-1.2139303v-3.9800995c-.008582-.0879617.014338-.1761137.064676-.2487562.039132-.0465256.098712-.0707299.159204-.0646767h.850746v-.6666666h-3.830845v.6666666h.636816c.194029 0 .273631.039801.308457.0746269s.074627.0995025.074627.3084577v4.0348259c-.01992.4610151.086755.9186861.308458 1.3233831.240584.3800216.593592.6756443 1.00995.8457711.524132.2195554 1.088604.3263473 1.656717.3134328.768843.0407809 1.524519-.2117037 2.114427-.7064676.516118-.4739081.798062-1.1505738.771145-1.8507463v-3.3084577c-.008396-.2620234.062715-.520452.20398-.7412935.126639-.1832603.339832-.2870267.562189-.2736319h.298507v-.6666666h-2.955224z"/><path d="m198.955224 54.1691542c.075939-.0464496.165397-.0657445.253731-.0547263h.751244v-.6666667h-2.577114v-.0945274l-.029851.0945274h-.542289l-1.552239 4.6368159-1.552238-4.6368159h-1.492538l-.049751-.159204v.159204h-1.552239v.6666667h.676617c.218906 0 .293533.039801.318408.0646766.024876.0248756.069652.0895522.069652.3184079v4.6417911c.012115.2664611-.083261.5266296-.264726.7221256s-.433824.3099486-.700448.3176754h-.099503v.6567164h2.920398v-.6368159h-.099502c-.283864-.0131311-.554494-.1238433-.766169-.3134329-.171734-.1784606-.263352-.4191831-.253732-.6666666v-4.5920398l2.069652 6.1691542v.0696517h.587065l2.099502-6.1890547v5.2288557c.005242.0814993-.021534.161826-.074627.2238806-.055796.0531887-.132405.0787249-.208955.0696518h-.79602v.6666666h3.870647v-.6666666h-.676617c-.116265.0065191-.231501-.0249089-.328358-.0895523-.043825-.0584111-.063428-.1314766-.054726-.2039801v-5.4726368c-.017854-.0916763.001864-.1866822.054726-.2636816z"/></g><g transform="translate(80 -.000067)"><path d="m20 .05976812c-10.99074129 0-19.90049751 8.90975622-19.90049751 19.90049748 0 10.9907413 8.90975622 19.9004975 19.90049751 19.9004975 10.9907413 0 19.9004975-8.9097562 19.9004975-19.9004975-.0191696-10.98279115-8.9177063-19.88132787-19.9004975-19.90049748zm8.1492537 25.87064678c-1.3145237 1.9316259-2.8232065 3.7237076-4.5024875 5.3482587-1.4931397-.7115398-3.1029277-1.1464355-4.7512438-1.2835821-2.3299512-.1698222-4.6359036-.581659-6.880597-1.2288557-.132339-1.6473921-.5621717-3.2571577-1.2686567-4.7512438-1.01478439-2.1033435-1.81003263-4.3056977-2.37313437-6.5721393 1.36204053-.9405551 2.54203197-2.1205465 3.48258707-3.4825871 1.3065764-1.929008 2.8069113-3.7194076 4.4776119-5.34328355 1.492244.72706089 3.1034899 1.17874906 4.7562189 1.33333333 2.3253072.16576142 4.6275296.56919212 6.8706468 1.20398012.1281301 1.6534769.5598845 3.2691829 1.2736318 4.7661691 1.0131496 2.1045565 1.8099409 4.3065678 2.3781095 6.5721393-1.3597761.9332486-2.5396151 2.1046602-3.4825871 3.4577115z" fill="#fff"/><path d="m20 .00004883c-10.80142167.01417693-19.63801841 8.60623061-19.95522388 19.40300287 1.56218905.2487562 7.46268657.721393 11.81094528-5.4278607 5.039801-7.13930348 8.4577114-8.65174129 12.9054726-9.15422885 3.5870647-.41293533 7.4626866.26368159 8.8557214.54228856-3.6929865-3.4524216-8.5614907-5.3699399-13.6169154-5.36320188z" fill="url(#b)"/><path d="m10.7263682 24.0348925c-3.66169158-7.960199-3.26368163-11.641791-1.49253735-15.75621891 1.27204435-2.6953019 2.92769965-5.19219094 4.91542285-7.41293532-7.51054322 2.29396397-12.97804607 8.77869657-13.96979719 16.56888013-.99175113 7.7901836 2.67657083 15.437978 9.3727823 19.5405726.99502489-1.2288557 4.32835819-6.1293532 1.17412939-12.9402985z" fill="url(#c)"/><path d="m20 39.9404168c3.319122.0053734 6.5864916-.8225884 9.5024876-2.4080119-.5671642-1.4925373-3.119403-6.8308457-10.6069652-7.5174129-8.7064677-.7910448-11.71641792-2.9850746-14.38308459-6.5970149-2.15920398-2.9154229-3.51741293-6.6417911-3.9800995-7.960199-1.38670028 5.935808.01708299 12.1798597 3.81090856 16.9509856 3.79382556 4.7711259 9.56113483 7.5454607 15.65675313 7.5316531z" fill="url(#d)"/><path d="m20 39.9403718c10.8033534-.0114795 19.6429337-8.6042918 19.960199-19.4029917-1.562189-.2537314-7.4626866-.7213931-11.8109453 5.4228855-5.039801 7.1442786-8.4577114 8.6517413-12.9054726 9.159204-2.9628556.2453003-5.94561246.0609726-8.8557214-.5472637 3.6909648 3.4530584 8.5575545 5.3723019 13.6119403 5.3681659z" fill="url(#e)"/><path d="m29.2338308 15.9204646c3.6666667 7.960199 3.2686568 11.6417911 1.4925374 15.7562189-1.2733831 2.6945472-2.928916 5.1912515-4.9154229 7.4129354 7.51313-2.2856493 12.9878371-8.7643812 13.988178-16.5535168 1.000341-7.7891356-2.6596044-15.44101016-9.3513621-19.55096085-.9950249 1.20895523-4.3681592 6.09452737-1.2139304 12.93532335z" fill="url(#f)"/><path d="m20 0c-3.3175435-.0053757-6.5833081.82261281-9.4975124 2.40802682.562189 1.49253732 3.1144278 6.83084578 10.6069651 7.51741294 8.7014926.79104474 11.7164179 2.98507464 14.3830846 6.60199004 2.1542289 2.9104478 3.5174129 6.6318408 3.9800995 7.960199 1.3886754-5.937376-.0148813-12.1837976-3.8100586-16.95637368-3.7951773-4.77257606-9.5649881-7.54692981-15.6625782-7.53125512z" fill="url(#g)"/></g></g></svg>